# xmcd
#
# Track frame offsets:
# 150
# 8144
# 40588
# 73639
# 81793
# 105801
# 133143
# 137430
# 154910
# 184668
#
# Disc length: 2520 seconds
#
#
# Revision: 0
# Processed by: cddbd v1.5.2PL0 Copyright (c) Steve Scherf et al.
# Submitted via: FreeRIP 2.942 
#
DISCID=7409d60a
DTITLE=Bine Brändle - Flusi, das Sockenmonster
DYEAR=2005
DGENRE=Kinder
TTITLE0=Musik: Flusi 1
TTITLE1=Flusi, das Sockenmonster 1
TTITLE2=Flusi, das Sockenmonster 2
TTITLE3=Musik: Flusi 2
TTITLE4=Wie verhext! 1
TTITLE5=Wie verhext! 2
TTITLE6=Musik: Bei Bommels 1
TTITLE7=Die Bommels brausen los 1
TTITLE8=Die Bommels brausen los 2
TTITLE9=Musik: Bei Bommels 2
EXTD=
EXTT0=
EXTT1=
EXTT2=
EXTT3=
EXTT4=
EXTT5=
EXTT6=
EXTT7=
EXTT8=
EXTT9=
PLAYORDER=
